<?xml version="1.0" encoding="utf-8"?>
<!-- Generator: Adobe Illustrator 16.0.0, SVG Export Plug-In . SVG Version: 6.00 Build 0)  -->
<!DOCTYPE svg PUBLIC "-//W3C//DTD SVG 1.1//EN" "http://www.w3.org/Graphics/SVG/1.1/DTD/svg11.dtd">
<svg version="1.1" id="Layer_1" xmlns="http://www.w3.org/2000/svg" xmlns:xlink="http://www.w3.org/1999/xlink" x="0px" y="0px"
	 width="1400px" height="980px" viewBox="0 0 1400 980" enable-background="new 0 0 1400 980" xml:space="preserve">
<g>
	<g>
		<g>
			<rect fill="#10C7CB" width="1399.994" height="980"/>
		</g>
	</g>
	<g>
		<path fill="#414042" d="M598.246,607.696c0,8.353-6.771,15.124-15.123,15.124H209.222c-8.353,0-15.123-6.771-15.123-15.124
			V331.262c0-8.354,6.771-15.125,15.123-15.125h373.901c8.353,0,15.123,6.771,15.123,15.125V607.696z"/>
	</g>
	<g>
		<g>
			<polygon fill="#FF7163" points="211.323,334.622 211.323,604.336 581.022,334.622 			"/>
		</g>
		<g>
			<polygon fill="#EB695B" points="211.323,604.336 581.022,604.336 581.022,334.622 			"/>
		</g>
	</g>
	<g>
		<polygon fill="#F0F0F0" points="449.99,680.215 342.354,680.215 352.06,622.82 440.285,622.82 		"/>
	</g>
	<g>
		<rect x="320.867" y="680.215" fill="#FFFFFF" width="150.61" height="13.864"/>
	</g>
	<g>
		<g>
			<g>
				<g>
					<polygon fill="#E3BDA6" points="725.302,456.297 676.958,477.596 676.958,505.257 725.302,520.155 726.084,519.917 
						726.084,456.64 					"/>
				</g>
			</g>
			<g>
				<g>
					<polygon fill="#BF9F8D" points="773.648,477.596 726.084,456.64 726.084,519.917 773.648,505.257 					"/>
				</g>
			</g>
		</g>
		<g>
			<g>
				<g>
					<path fill="none" d="M802.585,373.623c0.117-0.062,0.226-0.108,0.342-0.164c-0.03-0.443-0.063-0.905-0.101-1.386
						C802.677,373.076,802.585,373.623,802.585,373.623z"/>
				</g>
			</g>
			<g>
				<g>
					<path fill="#F8CEB5" d="M636.247,351.732c0.672,7.504,1.944,14.264,3.295,19.814c-7.986,1.073-7.398,13.602-7.398,13.602
						c-1.443,40.4,23.557,47.122,23.557,47.122c10.579,62.959,69.602,72.987,69.602,72.987s0.278-0.045,0.782-0.149V351.732H636.247
						z"/>
				</g>
			</g>
			<g>
				<g>
					<path fill="#E3BDA6" d="M818.448,385.148c0,0,0.839-17.694-12.869-12.837c2.173-7.251,3.801-14.097,4.977-20.579h-84.472
						v153.375c6.966-1.441,58.938-14.124,68.805-72.837C794.889,432.27,819.892,425.548,818.448,385.148z M802.585,373.623
						c0,0,0.092-0.547,0.241-1.549c0.038,0.481,0.07,0.943,0.101,1.386C802.811,373.515,802.702,373.561,802.585,373.623z"/>
				</g>
			</g>
		</g>
		<g>
			<g>
				<path fill="#E0AD3F" d="M725.304,313.572v33.856h94.25v-30.464c0-27.169-11.866-51.556-30.688-68.299v25.777
					c0,7.591-6.153,13.741-13.742,13.741s-13.743-6.15-13.743-13.741v-35.138c0-2.464,0.657-4.775,1.796-6.778
					c-7.586-3.148-15.685-5.291-24.138-6.298v73.599C739.039,307.418,732.89,313.565,725.304,313.572z"/>
			</g>
		</g>
		<g>
			<g>
				<path fill="#FFC547" d="M725.304,313.572c-0.002,0-0.008,0-0.008,0c-7.591,0-13.743-6.154-13.743-13.744v-73.599
					c-8.453,1.007-16.555,3.149-24.138,6.298c1.139,2.003,1.796,4.314,1.796,6.778v35.138c0,7.591-6.151,13.741-13.74,13.741
					c-7.591,0-13.744-6.15-13.744-13.741v-25.78c-18.822,16.743-30.691,41.13-30.691,68.302v30.464h94.268V313.572z"/>
			</g>
		</g>
		<g>
			<g>
				<path fill="#FFE099" d="M631.036,347.429h-6.028c-5.61,0-10.154,4.548-10.154,10.164c0,5.608,4.544,10.149,10.154,10.149
					h100.296v-20.313H631.036z"/>
			</g>
		</g>
		<g>
			<g>
				<path fill="#EBCD8D" d="M825.582,347.429h-6.028h-94.25v20.313h100.278c5.609,0,10.158-4.542,10.158-10.149
					C835.74,351.977,831.191,347.429,825.582,347.429z"/>
			</g>
		</g>
		<g>
			<g>
				<path fill="#EBCD8D" d="M725.304,211.817v13.743v88.012c7.586-0.007,13.735-6.154,13.735-13.744v-73.599v-0.669
					C739.039,217.974,732.89,211.82,725.304,211.817z"/>
			</g>
		</g>
		<g>
			<g>
				<path fill="#FFE099" d="M725.296,211.817c-7.591,0-13.743,6.153-13.743,13.743v0.669v73.599c0,7.59,6.152,13.744,13.743,13.744
					c0,0,0.006,0,0.008,0V225.56v-13.743C725.302,211.817,725.296,211.817,725.296,211.817z"/>
			</g>
		</g>
		<g>
			<g>
				<path fill="#EBCD8D" d="M775.124,225.56c-5.122,0-9.583,2.813-11.947,6.967c-1.139,2.003-1.796,4.314-1.796,6.778v35.138
					c0,7.591,6.154,13.741,13.743,13.741s13.742-6.15,13.742-13.741v-25.777v-9.361C788.866,231.718,782.713,225.56,775.124,225.56z
					"/>
			</g>
		</g>
		<g>
			<g>
				<path fill="#FFE099" d="M687.415,232.527c-2.362-4.154-6.822-6.967-11.944-6.967c-7.591,0-13.744,6.158-13.744,13.745v9.358
					v25.78c0,7.591,6.153,13.741,13.744,13.741c7.589,0,13.74-6.15,13.74-13.741v-35.138
					C689.211,236.841,688.554,234.53,687.415,232.527z"/>
			</g>
		</g>
		<g>
			<polygon fill="none" points="726.084,518.358 726.084,518.358 726.084,518.358 			"/>
		</g>
		<g>
			<polygon fill="#FFFFFF" points="774.049,505.859 773.648,505.257 773.38,506.623 			"/>
		</g>
		<g>
			<polygon fill="#F5F5F5" points="773.38,506.623 773.648,505.257 728.509,519.168 726.084,518.358 738.266,546.783 			"/>
		</g>
		<g>
			<polygon fill="#00324D" points="738.266,546.783 726.084,518.358 726.084,560.488 			"/>
		</g>
		<g>
			<polygon fill="#00486C" points="726.084,560.488 726.084,560.488 726.084,518.358 713.9,546.783 			"/>
		</g>
		<g>
			<polygon fill="#FFFFFF" points="726.084,518.358 725.302,518.096 722.096,519.166 677.826,505.524 713.9,546.783 			"/>
		</g>
		<g>
			<polygon fill="#FFFFFF" points="725.409,751.685 725.494,751.85 725.581,751.685 725.494,751.242 			"/>
		</g>
		<g>
			<path fill="#F5F5F5" d="M726.084,750.72l81.922-157.305l-19.14-25.206l29.642-15.126l-18.689-24.635
				c-7.261-3.157-12.916-6.008-16.258-8.293l-9.512-14.296l-0.669,0.764l-47.296,241.611V750.72z"/>
		</g>
		<g>
			<polygon fill="#FFFFFF" points="725.494,751.242 725.581,751.685 726.084,750.72 726.084,748.234 			"/>
		</g>
		<g>
			<polygon fill="#E6E6E6" points="725.581,751.685 725.686,752.217 726.084,752.217 726.084,750.72 			"/>
		</g>
		<g>
			<path fill="#DBDBDB" d="M909.316,576.369c-16.867-21.464-57.764-29.137-57.764-29.137c-19.837-6.236-38.475-13.021-51.734-18.784
				l18.689,24.635l-29.642,15.126l19.14,25.206L726.084,750.72v1.497h187.294v-97.271v-30.44v-37.571
				C910.96,579.998,909.316,576.369,909.316,576.369z"/>
		</g>
		<g>
			<polygon fill="#FFFFFF" points="725.409,751.685 725.304,752.217 725.494,751.85 			"/>
		</g>
		<g>
			<polygon fill="#DBDBDB" points="726.084,560.488 726.084,560.489 741.207,591.209 726.084,691.402 726.084,748.234 
				773.38,506.623 738.266,546.783 			"/>
		</g>
		<g>
			<polygon fill="#E6E6E6" points="726.084,560.488 726.084,560.488 726.084,560.489 			"/>
		</g>
		<g>
			<polygon fill="#F0F0F0" points="726.084,748.234 726.084,691.402 726.084,691.407 710.959,591.209 726.084,560.488 
				713.9,546.783 677.826,505.524 677.364,505.382 725.494,751.242 			"/>
		</g>
		<g>
			<polygon fill="#FFFFFF" points="725.494,751.85 725.686,752.217 725.581,751.685 			"/>
		</g>
		<g>
			<polygon fill="#FFFFFF" points="725.304,752.217 725.686,752.217 725.494,751.85 			"/>
		</g>
		<g>
			<path fill="#F0F0F0" d="M642.983,593.415l19.139-25.206l-29.641-15.126l18.884-24.891c-13.295,5.819-32.193,12.713-52.321,19.04
				c0,0-40.88,7.673-57.753,29.137c0,0-0.965,0.8-2.501,3.323v44.813v30.44v97.271h186.514l0.105-0.532L642.983,593.415z"/>
		</g>
		<g>
			<path fill="#FFFFFF" d="M662.122,568.209l-19.139,25.206l82.426,158.27l0.085-0.442l-48.13-245.86l-0.406-0.125l-9.921,14.898
				c-3.257,2.225-8.693,4.982-15.673,8.037l-18.884,24.891L662.122,568.209z"/>
		</g>
		<g>
			<polygon fill="#00324D" points="726.084,560.489 726.084,691.402 741.207,591.209 			"/>
		</g>
		<g>
			<polygon fill="#00486C" points="726.084,560.488 710.959,591.209 726.084,691.407 726.084,691.402 726.084,560.489 			"/>
		</g>
	</g>
	<g>
		<path fill="#FFFFFF" d="M542.112,442.767l2.027-0.475l-0.45-2.039c-1.956-8.866-5.111-17.369-9.359-25.289l-0.971-1.802
			l-1.835,0.917c-4.068,2.033-8.632,3.11-13.199,3.11c-7.653,0-14.906-2.929-20.416-8.258c-8.958-8.663-11.466-22.097-6.239-33.432
			l0.861-1.87l-1.851-0.909c-8.193-4.04-16.908-6.926-25.903-8.572l-2.043-0.366l-0.408,2.032c-1.104,5.5-3.752,10.557-7.658,14.621
			c-5.593,5.776-13.107,8.958-21.158,8.958c-7.668,0-14.931-2.937-20.434-8.25c-2.423-2.384-4.401-5.12-5.88-8.129l-0.924-1.875
			l-1.874,0.885c-8.263,3.898-15.96,8.956-22.894,15.048l-1.545,1.358l1.313,1.575c9.543,11.501,8.884,28.316-1.525,39.122
			c-6.956,7.181-17.228,10.343-27.063,8.339l-2.016-0.409l-0.461,1.998c-2.046,8.803-2.886,17.808-2.514,26.784l0.382,2.024h2.029
			c7.722,0,15.028,2.934,20.561,8.269c5.644,5.468,8.821,12.806,8.953,20.664c0.136,7.868-2.805,15.296-8.271,20.935
			c-0.77,0.798-1.59,1.512-2.405,2.183l-1.585,1.311l1.271,1.618c2.824,3.604,5.902,7.047,9.176,10.25
			c3.387,3.242,6.83,6.121,10.548,8.822l1.661,1.198l1.252-1.619c0.651-0.84,1.35-1.668,2.092-2.453
			c5.604-5.777,13.12-8.961,21.161-8.961c7.667,0,14.94,2.932,20.455,8.253c5.604,5.427,8.783,12.726,8.957,20.558l0.046,2.05
			l2.895,0.021c8.764,0,17.455-1.153,25.849-3.424l1.982-0.533l-0.479-1.991c-2.35-9.85,0.431-20.057,7.468-27.31
			c1.301-1.362,2.787-2.622,4.404-3.741c10.184-7.054,24.793-6.699,34.662,0.891l1.628,1.243l1.295-1.585
			c0.79-0.976,1.559-1.968,2.31-2.964c4.81-6.345,8.841-13.236,11.97-20.497l0.835-1.932l-1.924-0.843
			c-3.17-1.379-6.05-3.298-8.568-5.712c-5.651-5.461-8.833-12.792-8.968-20.649c-0.128-7.858,2.808-15.297,8.266-20.935
			C531.573,446.892,536.587,444.051,542.112,442.767z M445.874,516.317c-29.791,0-53.944-24.153-53.944-53.945
			c0-29.793,24.153-53.947,53.944-53.947c29.794,0,53.948,24.153,53.948,53.947C499.821,492.164,475.668,516.317,445.874,516.317z"
			/>
	</g>
	<g>
		<path fill="#FFE571" d="M364.309,531.226c-3.631-3.508-5.677-8.218-5.763-13.267c-0.083-5.05,1.805-9.829,5.311-13.453
			c2.553-2.625,5.775-4.451,9.324-5.277l1.304-0.303l-0.29-1.311c-1.255-5.697-3.283-11.16-6.013-16.251l-0.626-1.157l-1.176,0.589
			c-2.614,1.306-5.549,1.998-8.482,1.998c-4.918,0-9.576-1.88-13.12-5.306c-5.755-5.566-7.366-14.2-4.005-21.483l0.551-1.201
			l-1.188-0.585c-5.263-2.594-10.867-4.447-16.646-5.505l-1.312-0.237l-0.263,1.306c-0.711,3.535-2.411,6.783-4.918,9.395
			c-3.598,3.71-8.423,5.756-13.596,5.756c-4.928,0-9.596-1.885-13.13-5.299c-1.559-1.532-2.827-3.291-3.779-5.224l-0.593-1.206
			l-1.203,0.57c-5.311,2.504-10.255,5.753-14.71,9.668l-0.993,0.871l0.843,1.014c6.129,7.39,5.707,18.192-0.98,25.138
			c-4.469,4.612-11.069,6.646-17.387,5.358l-1.296-0.263l-0.296,1.281c-1.314,5.659-1.854,11.444-1.616,17.213l0.245,1.3h1.307
			c4.961,0,9.656,1.886,13.209,5.312c3.626,3.514,5.667,8.228,5.752,13.275c0.088,5.058-1.802,9.831-5.314,13.453
			c-0.495,0.513-1.023,0.972-1.545,1.401l-1.02,0.846l0.818,1.04c1.813,2.311,3.789,4.528,5.894,6.579
			c2.175,2.088,4.389,3.939,6.777,5.672l1.069,0.773l0.803-1.042c0.418-0.543,0.871-1.071,1.347-1.577
			c3.599-3.712,8.429-5.759,13.593-5.759c4.927,0,9.602,1.887,13.147,5.303c3.599,3.49,5.642,8.181,5.755,13.211l0.029,1.315
			l1.86,0.014c5.63,0,11.214-0.74,16.607-2.198l1.273-0.344l-0.309-1.279c-1.509-6.325,0.278-12.885,4.801-17.547
			c0.834-0.875,1.79-1.685,2.83-2.402c6.54-4.531,15.931-4.307,22.272,0.571l1.046,0.8l0.831-1.021
			c0.507-0.628,1.001-1.263,1.484-1.903c3.09-4.076,5.682-8.502,7.692-13.169l0.535-1.242l-1.234-0.541
			C367.777,534.012,365.928,532.778,364.309,531.226z M311.345,546.489c-19.144,0-34.662-15.52-34.662-34.662
			c0-19.145,15.519-34.661,34.662-34.661c19.145,0,34.662,15.516,34.662,34.661C346.007,530.97,330.49,546.489,311.345,546.489z"/>
	</g>
	<g>
		<path fill="#FFFFFF" d="M913.549,488.952c-2.875-2.778-4.496-6.508-4.563-10.508c-0.066-3.999,1.43-7.783,4.206-10.654
			c2.021-2.077,4.573-3.523,7.383-4.176l1.032-0.242l-0.228-1.038c-0.996-4.512-2.601-8.839-4.763-12.869l-0.496-0.917l-0.932,0.467
			c-2.07,1.032-4.394,1.582-6.718,1.582c-3.895,0-7.584-1.487-10.391-4.202c-4.557-4.408-5.835-11.246-3.173-17.014l0.438-0.951
			l-0.942-0.463c-4.169-2.055-8.604-3.52-13.181-4.359l-1.038-0.188l-0.21,1.035c-0.563,2.798-1.908,5.372-3.895,7.441
			c-2.85,2.937-6.67,4.557-10.769,4.557c-3.901,0-7.597-1.491-10.398-4.195c-1.234-1.215-2.238-2.607-2.993-4.136l-0.467-0.954
			l-0.955,0.45c-4.205,1.982-8.122,4.557-11.648,7.656l-0.787,0.691l0.668,0.802c4.854,5.852,4.52,14.406-0.776,19.909
			c-3.539,3.653-8.768,5.262-13.77,4.242l-1.026-0.208l-0.235,1.016c-1.041,4.481-1.469,9.063-1.279,13.633l0.192,1.028h1.035
			c3.928,0,7.648,1.493,10.463,4.208c2.87,2.781,4.486,6.514,4.555,10.512c0.07,4.006-1.428,7.787-4.21,10.653
			c-0.391,0.407-0.81,0.77-1.222,1.113l-0.809,0.669l0.648,0.821c1.436,1.83,3.001,3.589,4.668,5.212
			c1.723,1.653,3.476,3.119,5.366,4.491l0.846,0.609l0.638-0.823c0.33-0.428,0.688-0.85,1.064-1.246
			c2.851-2.941,6.678-4.563,10.767-4.563c3.903,0,7.604,1.495,10.413,4.199c2.849,2.765,4.466,6.479,4.556,10.462l0.023,1.041
			l1.474,0.013c4.46,0,8.882-0.587,13.151-1.743l1.011-0.27l-0.244-1.014c-1.197-5.01,0.22-10.204,3.801-13.896
			c0.661-0.695,1.415-1.334,2.24-1.903c5.181-3.59,12.615-3.412,17.638,0.453l0.829,0.631l0.659-0.808
			c0.4-0.497,0.791-1.001,1.173-1.506c2.449-3.229,4.502-6.734,6.096-10.431l0.422-0.985l-0.978-0.427
			C916.295,491.157,914.832,490.182,913.549,488.952z M871.604,501.041c-15.16,0-27.452-12.292-27.452-27.452
			c0-15.161,12.292-27.449,27.452-27.449c15.163,0,27.452,12.288,27.452,27.449C899.056,488.749,886.767,501.041,871.604,501.041z"
			/>
	</g>
	<g>
		<g>
			<path fill="#0093BC" d="M892.34,613.413c0,3.07-2.489,5.558-5.559,5.558h-55.38c-3.07,0-5.558-2.487-5.558-5.558v-1.546
				c0-3.07,2.487-5.56,5.558-5.56h55.38c3.069,0,5.559,2.489,5.559,5.56V613.413z"/>
		</g>
		<g>
			<path fill="#0093BC" d="M954.771,828.29l-46.81-73.307c-25.613-34.443-23.552-76.146-23.552-76.146v-59.866h-8.832v59.677
				c-0.141,3.51-0.921,36.645,17.035,68.813H825.57c17.955-32.169,17.174-65.304,17.035-68.813v-59.677h-8.834v59.866
				c0,0,2.063,41.703-23.551,76.146l-46.809,73.307c0,0-37.979,47.656,13.248,47.656h82.432h82.432
				C992.75,875.946,954.771,828.29,954.771,828.29z"/>
		</g>
		<g opacity="0.5">
			<path fill="#A5FDFF" d="M825.57,747.461h67.043c-17.956-32.169-17.176-65.304-17.035-68.813v-59.677h-16.486h-16.486v59.677
				C842.744,682.157,843.525,715.292,825.57,747.461z"/>
		</g>
		<g>
			<path fill="#FF7163" d="M947.576,833.433l-46.894-73.435c-3.041-4.117-5.715-8.319-8.069-12.537H825.57
				c-2.354,4.218-5.028,8.42-8.07,12.537l-46.895,73.435l-0.279,0.351c-6.438,8.124-13.855,22.472-11.046,28.286
				c1.53,3.161,8.025,5.045,17.38,5.045h164.863c9.354,0,15.85-1.884,17.38-5.045c2.81-5.814-4.608-20.162-11.04-28.273
				L947.576,833.433z"/>
		</g>
		<g>
			<circle fill="#DE6255" cx="831.859" cy="791.196" r="9.715"/>
		</g>
		<g>
			<circle fill="#FF7163" cx="873.956" cy="747.461" r="9.715"/>
		</g>
		<g>
			<circle fill="#FF7163" cx="861.889" cy="752.217" r="9.714"/>
		</g>
		<g>
			<circle fill="#DE6255" cx="877.345" cy="800.911" r="15.456"/>
		</g>
		<g>
			<path fill="#DE6255" d="M831.859,841.537c0,3.473-2.815,6.292-6.289,6.292s-6.29-2.819-6.29-6.292
				c0-3.472,2.816-6.287,6.29-6.287S831.859,838.065,831.859,841.537z"/>
		</g>
	</g>
	<g>
		<g>
			<path fill="#414042" d="M1083.009,156.716H886.986c-16.951,0-30.692,13.742-30.692,30.691v140.725
				c0,16.949,13.741,30.691,30.692,30.691h29.211v51.417l69.067-51.417h97.744c16.951,0,30.692-13.743,30.692-30.691V187.407
				C1113.701,170.458,1099.96,156.716,1083.009,156.716z"/>
		</g>
		<g>
			<circle fill="#10C7CB" cx="900.625" cy="262.455" r="21.051"/>
		</g>
		<g>
			<circle fill="#10C7CB" cx="984.997" cy="262.455" r="21.051"/>
		</g>
		<g>
			<circle fill="#10C7CB" cx="1069.37" cy="262.455" r="21.051"/>
		</g>
	</g>
	<g>
		<path fill="#414042" d="M980.375,437.42c-7.32-6.342-18.401-5.554-24.747,1.763l-4.79,5.525c-6.343,7.318-5.556,18.4,1.765,24.748
			l17.929,15.543l26.931-32.763L980.375,437.42z"/>
	</g>
	<g>
		<path fill="#FFC547" d="M1072.006,436.537h-61.638l-12.906,15.699l-26.931,32.763l-15.039,18.292v73.982
			c0,6.939,5.625,12.563,12.563,12.563h103.95c6.938,0,12.562-5.624,12.562-12.563V449.101
			C1084.567,442.163,1078.944,436.537,1072.006,436.537z"/>
	</g>
	<g>
		<rect x="1145.818" y="442.464" fill="#FFC547" width="32.632" height="28.317"/>
	</g>
	<g>
		<rect x="1145.818" y="555.593" fill="#FFC547" width="32.632" height="182.823"/>
	</g>
	<g>
		<path fill="#414042" d="M1182.53,470.781h-4.08h-32.632h-61.251v84.812h61.251h32.632h4.08c13.55,0,24.538-10.986,24.538-24.539
			v-35.734C1207.068,481.766,1196.08,470.781,1182.53,470.781z"/>
	</g>
	<g>
		<path fill="#414042" d="M1234.29,770.28v-8.924c0-12.671-10.272-22.94-22.944-22.94H975.24c-12.672,0-22.944,10.27-22.944,22.94
			v8.924H1234.29z"/>
	</g>
	<g>
		<circle fill="#F5F5F5" cx="1162.134" cy="513.188" r="21.413"/>
	</g>
	<g>
		<rect x="1060.752" y="482.076" fill="#FFFFFF" width="1.563" height="107.761"/>
	</g>
	<g>
		<rect x="1039.813" y="518.721" fill="#FFFFFF" width="1.563" height="71.116"/>
	</g>
	<g>
		<rect x="1152.365" y="442.464" fill="#FFFFFF" width="1.563" height="21.811"/>
	</g>
	<g>
		<rect x="1152.365" y="628.655" fill="#FFFFFF" width="1.563" height="109.761"/>
	</g>
	<g>
		<rect x="1123.83" y="756.623" fill="#FFFFFF" width="110.113" height="1.563"/>
	</g>
	<g>
		<g>
			<path fill="#FFC547" d="M637.639,841.504c0,8.307-6.732,15.041-15.038,15.041H456.22c-8.305,0-15.038-6.734-15.038-15.041
				V598.653c0-8.307,6.732-15.04,15.038-15.04h166.381c8.305,0,15.038,6.733,15.038,15.04V841.504z"/>
		</g>
		<g>
			<rect x="465.471" y="613.69" fill="#FFFFFF" width="147.88" height="216.808"/>
		</g>
		<g>
			<path fill="#444444" d="M699.785,808.237l1.892-0.442l-0.421-1.902c-1.824-8.273-4.768-16.211-8.735-23.604l-0.907-1.68
				l-1.71,0.858c-3.796,1.894-8.056,2.901-12.319,2.901c-7.143,0-13.911-2.733-19.054-7.708
				c-8.358-8.087-10.701-20.623-5.822-31.202l0.805-1.744l-1.729-0.849c-7.647-3.769-15.78-6.463-24.175-8.001l-1.906-0.339
				l-0.382,1.896c-1.03,5.13-3.501,9.852-7.146,13.645c-5.221,5.387-12.234,8.358-19.747,8.358c-7.155,0-13.934-2.739-19.069-7.699
				c-2.263-2.223-4.107-4.776-5.489-7.586l-0.863-1.749l-1.749,0.827c-7.711,3.634-14.894,8.355-21.367,14.042l-1.441,1.268
				l1.226,1.472c8.905,10.734,8.29,26.426-1.425,36.513c-6.493,6.7-16.077,9.653-25.256,7.781l-1.881-0.382l-0.431,1.866
				c-1.91,8.212-2.693,16.619-2.345,24.993l0.354,1.894h1.896c7.205,0,14.024,2.736,19.188,7.715
				c5.267,5.103,8.233,11.949,8.355,19.282c0.128,7.348-2.619,14.28-7.719,19.542c-0.719,0.742-1.486,1.411-2.246,2.037
				l-1.478,1.222l1.185,1.512c2.635,3.362,5.507,6.575,8.563,9.564c3.161,3.026,6.375,5.711,9.843,8.233l1.553,1.121l1.168-1.512
				c0.606-0.788,1.26-1.558,1.953-2.294c5.228-5.39,12.245-8.361,19.748-8.361c7.155,0,13.943,2.736,19.09,7.702
				c5.229,5.066,8.198,11.877,8.36,19.188l0.044,1.912l2.7,0.021c8.178,0,16.291-1.078,24.125-3.194l1.849-0.501l-0.446-1.857
				c-2.194-9.192,0.401-18.717,6.969-25.487c1.214-1.271,2.602-2.446,4.111-3.491c9.502-6.584,23.14-6.254,32.349,0.831l1.52,1.16
				l1.208-1.481c0.738-0.91,1.455-1.835,2.156-2.764c4.491-5.921,8.251-12.353,11.173-19.133l0.779-1.799l-1.796-0.787
				c-2.958-1.289-5.647-3.079-7.995-5.333c-5.274-5.094-8.246-11.938-8.371-19.27c-0.119-7.336,2.621-14.277,7.714-19.536
				C689.95,812.089,694.628,809.438,699.785,808.237z M609.967,876.881c-27.806,0-50.344-22.541-50.344-50.344
				c0-27.81,22.538-50.351,50.344-50.351s50.347,22.541,50.347,50.351C660.314,854.34,637.773,876.881,609.967,876.881z"/>
		</g>
		<g>
			<path fill="#FF7163" d="M609.967,784.362c-23.289,0-42.171,18.882-42.171,42.171c0,23.293,18.882,42.175,42.171,42.175
				c23.292,0,42.175-18.882,42.175-42.175C652.142,803.244,633.26,784.362,609.967,784.362z M609.967,851.396
				c-13.729,0-24.859-11.132-24.859-24.862c0-13.727,11.13-24.858,24.859-24.858c13.73,0,24.862,11.132,24.862,24.858
				C634.829,840.264,623.698,851.396,609.967,851.396z"/>
		</g>
		<g>
			<path fill="#444444" d="M609.967,807.523c-10.5,0-19.011,8.511-19.011,19.01c0,10.5,8.511,19.015,19.011,19.015
				c10.502,0,19.014-8.515,19.014-19.015C628.981,816.034,620.47,807.523,609.967,807.523z"/>
		</g>
		<g>
			<path fill="#444444" d="M552.578,560.778c0.122-0.727,0.198-1.467,0.198-2.227c0-7.383-5.982-13.368-13.365-13.368
				c-7.383,0-13.367,5.985-13.367,13.368c0,0.76,0.078,1.5,0.2,2.227c-15.648,5.446-26.882,20.317-26.882,37.822
				c0,0.02,0.001,0.034,0.001,0.055h80.095c0-0.021,0.003-0.035,0.003-0.055C579.462,581.096,568.226,566.225,552.578,560.778z
				 M539.411,564.815c-3.459,0-6.264-2.803-6.264-6.264c0-3.46,2.805-6.265,6.264-6.265c3.458,0,6.263,2.805,6.263,6.265
				C545.674,562.013,542.87,564.815,539.411,564.815z"/>
		</g>
		<g>
			<rect x="489.701" y="636.25" fill="#444444" width="99.42" height="12.53"/>
		</g>
		<g>
			<rect x="489.701" y="673.847" fill="#444444" width="99.42" height="12.53"/>
		</g>
		<g>
			<rect x="489.701" y="711.442" fill="#444444" width="99.42" height="12.532"/>
		</g>
		<g>
			<rect x="489.701" y="749.037" fill="#444444" width="99.42" height="12.533"/>
		</g>
		<g>
			<rect x="489.701" y="786.634" fill="#444444" width="72.627" height="12.533"/>
		</g>
	</g>
	<g>
		<g>
			<path fill="#005870" d="M448.748,203.531l-2.037-1.186l0.669-2.261c0.571-1.911,0.858-3.934,0.858-6.008
				c0-11.723-9.531-21.263-21.24-21.263c-2.845,0-5.605,0.563-8.203,1.665l-1.921,0.817l-1.432-1.517
				c-11.173-11.851-26.912-18.648-43.18-18.648c-26.795,0-50.359,18.059-57.304,43.91l-0.379,1.418l-1.353,0.567
				c-16.07,6.78-26.453,22.396-26.453,39.789c0,23.822,19.38,43.203,43.203,43.203h97.855l1.016-0.013l2.612-0.271
				c21.72-2.275,38.733-21.123,38.733-42.919C470.192,225.278,462.175,211.339,448.748,203.531z"/>
		</g>
		<g>
			<circle fill="#007494" cx="333.187" cy="244.035" r="19.289"/>
		</g>
		<g>
			<circle fill="#007494" cx="372.666" cy="201.411" r="12.647"/>
		</g>
	</g>
	<g>
		<g>
			<path fill="#DBDBDB" d="M594.102,248.365v-3.756l-6.382-2.463v-10.237h-57.013v5.652l-6.381,2.473v3.742l6.381,6.388v1.196
				l-6.381,2.469v3.747l6.381,6.389v4.98c0,10.138,8.25,18.385,18.39,18.385h20.232c1.396,0,2.794-0.166,4.272-0.517
				c8.31-1.982,14.119-9.331,14.119-17.868v-0.399l6.382-6.38v-3.756l-6.382-2.464v-1.203L594.102,248.365z"/>
		</g>
		<g>
			<path fill="#444444" d="M549.814,290.858v2.395c0,3.462,2.819,6.28,6.284,6.28h6.229c3.463,0,6.285-2.818,6.285-6.28v-2.395
				H549.814z"/>
		</g>
		<g>
			<path fill="#FFC547" d="M627.552,139.731c-1.568-33.133-18.69-49.039-32.781-56.546c-5.977-3.186-12.665-5.565-19.871-7.063
				c-7.468-1.555-13.207-1.677-14.789-1.677l-0.354,0.006l-0.22,0.004l-0.378-0.01c-3.049,0-19.054,0.42-34.656,8.741
				c-14.091,7.502-31.217,23.407-32.781,56.626c-0.024,0.687-0.134,6.945,2.013,15.796c1.97,8.107,5.201,15.76,9.607,22.735
				c2.095,3.32,4.483,6.498,7.195,9.573c2.413,2.728,5.076,5.329,7.914,7.732c1.24,1.048,2.301,1.906,3.315,2.675l6.331,29.551
				h63.074l6.342-29.546C628.25,174.982,627.596,141.179,627.552,139.731z"/>
		</g>
		<g>
			<path d="M581.062,216.145h-18.831c-0.431,0-0.782-0.35-0.782-0.782s0.351-0.782,0.782-0.782h18.198l5.061-23.572
				c0.088-0.423,0.504-0.684,0.928-0.602c0.421,0.091,0.69,0.506,0.599,0.928l-5.192,24.191
				C581.749,215.888,581.43,216.145,581.062,216.145z"/>
		</g>
		<g>
			<path d="M615.047,140.962c-0.414,0-0.759-0.325-0.78-0.744c-1.052-21.518-9.714-36.761-25.748-45.303
				c-0.382-0.204-0.525-0.677-0.322-1.059s0.673-0.526,1.059-0.322c16.552,8.819,25.492,24.501,26.573,46.607
				c0.02,0.43-0.311,0.798-0.743,0.817C615.073,140.962,615.062,140.962,615.047,140.962z"/>
		</g>
		<g>
			<path d="M565.34,240.547c-0.017,0-0.034,0-0.052-0.002l-34.631-2.204c-0.431-0.028-0.757-0.398-0.73-0.831
				c0.028-0.43,0.397-0.771,0.831-0.729l34.631,2.205c0.431,0.028,0.757,0.398,0.73,0.831
				C566.093,240.229,565.75,240.547,565.34,240.547z"/>
		</g>
		<g>
			<path d="M563.777,254.36c-0.019,0-0.035,0-0.055-0.001l-33.068-2.218c-0.431-0.028-0.756-0.401-0.727-0.832
				c0.031-0.431,0.418-0.746,0.831-0.729l33.071,2.217c0.431,0.028,0.757,0.402,0.727,0.832
				C564.528,254.044,564.185,254.36,563.777,254.36z"/>
		</g>
	</g>
	<g>
		<g>
			<polygon fill="#FFFFFF" points="340.396,648.573 242.864,648.573 242.864,835.25 379.039,835.25 379.039,689.862 			"/>
		</g>
		<g>
			<polygon fill="#444444" points="340.397,689.862 379.039,689.862 340.396,648.573 			"/>
		</g>
		<g>
			<rect x="256.329" y="669.219" fill="#FF7163" width="39.164" height="39.162"/>
		</g>
		<g>
			<rect x="256.329" y="722.701" fill="#414042" width="103.391" height="12.032"/>
		</g>
		<g>
			<rect x="256.329" y="752.191" fill="#414042" width="103.391" height="12.033"/>
		</g>
		<g>
			<rect x="256.329" y="781.687" fill="#414042" width="66.577" height="12.032"/>
		</g>
	</g>
	<g>
		<circle fill="#FFFFFF" cx="1009.055" cy="723.539" r="75.512"/>
	</g>
	<g>
		<g>
			<path fill="#FF7163" d="M1002.932,762.163l-35.694-35.693c-2.443-2.44-2.443-6.401,0-8.843c2.443-2.445,6.401-2.445,8.844,0
				l26.851,26.845l46.393-46.392c2.442-2.443,6.404-2.443,8.847,0c2.441,2.44,2.441,6.401,0,8.844L1002.932,762.163z"/>
		</g>
	</g>
</g>
</svg>
